Coordinates
version=1
nRows=5
nColumns=42
inDegrees=yes

Units are S.I. units (second, meters, Newtons, ...)
If the header above contains a line with 'inDegrees', this indicates whether rotational values are in degrees (yes) or radians (no).

endheader
time	pelvis_tilt	pelvis_list	pelvis_rotation	pelvis_tx	pelvis_ty	pelvis_tz	hip_flexion_r	hip_adduction_r	hip_rotation_r	knee_angle_r	knee_adduction_r	knee_angle_r_beta	ankle_angle_r	subtalar_angle_r	mtp_angle_r	hip_flexion_l	hip_adduction_l	hip_rotation_l	knee_angle_l	knee_adduction_l	knee_angle_l_beta	ankle_angle_l	subtalar_angle_l	mtp_angle_l	lumbar_extension	lumbar_bending	lumbar_rotation	arm_flex_r	arm_add_r	arm_rot_r	elbow_flex_r	pro_sup_r	wrist_flex_r	wrist_dev_r	arm_flex_l	arm_add_l	arm_rot_l	elbow_flex_l	pro_sup_l	wrist_flex_l	wrist_dev_l
      1.98000000	     15.49915292	     -1.79588804	     -1.65963037	      1.00977707	      0.86531962	     -0.19743132	     -0.57444248	      0.48063964	     -6.02240474	     61.06750248	     -5.64665680	      1.06582898	     13.42868618	    -15.89895767	     -7.50074600	    -15.83877957	     -1.15068544	     -3.60546027	      6.91892550	      6.82352980	      0.12075803	     15.12748404	     -1.87096798	     -7.50074600	    -26.81239453	      1.02295093	      5.70109286	      0.88383172	     -8.26334002	     -2.01835222	     29.78593765	     90.00000001	      0.00000000	      0.00000000	     11.53626893	     -6.35682608	     -2.00774779	     27.98707177	     90.00000001	      0.00000000	      0.00000000
      1.99000000	     15.23608125	     -1.85439075	     -1.23831892	      1.01975693	      0.86506356	     -0.19872287	      1.13292751	      0.64616203	     -5.95489145	     59.94481738	     -5.05533844	      1.04623443	     14.44958251	    -16.05998814	     -7.50073022	    -16.55948176	     -1.19419273	     -3.71152657	      6.31061388	      6.72979095	      0.11014099	     15.54748122	     -1.11669424	     -7.50073022	    -26.57940179	      1.28889678	      5.26245962	      0.03374776	     -8.17449626	     -2.19086457	     29.38009288	     90.00000001	      0.00000000	      0.00000000	     12.73890783	     -6.59538599	     -1.67659137	     28.72852018	     90.00000001	      0.00000000	      0.00000000
      2.00000000	     15.29396929	     -2.06190455	     -0.74332017	      1.02998737	      0.86511394	     -0.19987705	      2.20039576	      0.96845501	     -5.40205903	     58.22922537	     -3.95764791	      1.01629170	     14.99323356	    -16.33665873	     -7.50070483	    -17.77678179	     -1.51953519	     -3.69217976	      5.45458273	      6.85954608	      0.09520043	     16.00212870	     -0.04577415	     -7.50070483	    -26.66865865	      1.70089327	      4.90760830	     -0.87750574	     -8.02147125	     -2.81454123	     29.11126453	     90.00000001	      0.00000000	      0.00000000	     13.86609927	     -6.89757096	     -0.80546499	     29.76893006	     90.00000001	      0.00000000	      0.00000000
      2.01000000	     15.15298259	     -2.14383227	     -0.30739837	      1.04014323	      0.86460733	     -0.20097514	      3.51648222	      1.14078451	     -5.14066487	     56.40991356	     -3.20787463	      0.98453872	     15.63155904	    -16.58307173	     -7.50068608	    -18.65832600	     -1.66353155	     -3.80998583	      4.83608779	      6.86267817	      0.08440565	     16.42228846	      0.78850678	     -7.50068608	    -26.53665229	      1.96470542	      4.56413400	     -1.83489456	     -7.90710618	     -3.26089277	     28.94525938	     90.00000001	      0.00000000	      0.00000000	     15.01989248	     -7.15397714	     -0.17313397	     30.72817473	     90.00000001	      0.00000000	      0.00000000
      2.02000000	     15.13302255	     -2.25033477	      0.12927111	      1.05034016	      0.86412387	     -0.20191380	      4.53958176	      1.31747067	     -4.78371581	     54.19317860	     -2.32693509	      0.94584940	     15.93730351	    -16.76419694	     -7.50066629	    -19.70226780	     -1.88369323	     -3.95846505	      4.17170421	      6.93740810	      0.07280997	     16.86285019	      1.70239718	     -7.50066629	    -26.53707168	      2.24016468	      4.23019614	     -2.79020203	     -7.74417629	     -3.80829855	     28.87964069	     90.00000001	      0.00000000	      0.00000000	     16.12653517	     -7.45503416	      0.60232581	     31.76825608	     90.00000001	      0.00000000	      0.00000000
